<?xml version="1.0" encoding="UTF-8"?>
<svg xmlns="http://www.w3.org/2000/svg" xmlns:xlink="http://www.w3.org/1999/xlink" viewBox="0 0 314 57.1">
<g>
    <path d="M0,38.9v-4.5h5.6v2.6l2.5,2.6h13.5l2.6-2.6v-8.5l-2.6-2.5H5.8L.1,20.3v-11.1L5.8,3.5h17.7l5.7,5.7v4.5h-5.5v-2.7l-2.6-2.6h-12.9l-2.6,2.6v7.5l2.6,2.6h15.8l5.7,5.7v12l-5.8,5.8H5.7l-5.7-5.7Z" fill="#1d1d1b"/>
    <path d="M37.1,2.7h5.5v24.3h6.3l8.2-11.6h6.1l-9.8,14.1,10.4,15.2h-6.1l-8.9-12.8h-6.2v12.8h-5.5V2.7Z" fill="#1d1d1b"/>
    <path d="M66.6,39v-18l5.6-5.6h15.6l5.6,5.6v18l-5.6,5.6h-15.6l-5.6-5.6ZM70.8,9.7v-2.8l1.8-1.8h3.1l1.8,1.8v2.8l-1.8,1.8h-3.1l-1.8-1.8ZM85.4,39.9l2.6-2.6v-14.6l-2.6-2.6h-10.6l-2.6,2.6v14.6l2.6,2.6h10.6ZM82.8,9.7v-2.8l1.8-1.8h3.1l1.8,1.8v2.8l-1.8,1.8h-3.1l-1.8-1.8Z" fill="#1d1d1b"/>
    <path d="M101.4,2.7h5.5v42h-5.5V2.7Z" fill="#1d1d1b"/>
    <path d="M114.8,39v-18l5.6-5.6h11.4l4.3,3.8V2.7h5.5v42h-5.2v-5.1l-5.1,5.1h-10.9l-5.6-5.6ZM130.5,39.9l5.7-5.8v-9.5l-5.1-4.5h-8.1l-2.7,2.7v14.3l2.7,2.7h7.5Z" fill="#1d1d1b"/>
    <path d="M149.9,15.4h5.2v4.9l4.9-4.9h11.2l5.6,5.6v18l-5.6,5.6h-11.3l-4.5-3.9v16.3h-5.5V15.4ZM168.7,39.9l2.6-2.6v-14.5l-2.6-2.6h-7.5l-5.8,5.8v9.1l5.3,4.8h7.9Z" fill="#1d1d1b"/>
    <path d="M183.5,39.6v-7.2l5-5h15.4v-4.9l-2.6-2.5h-9.6l-2.5,2.5v2.2h-5.5v-3.6l5.7-5.7h14.2l5.7,5.7v23.6h-5.1v-4.8l-5.1,4.8h-10.6l-5-5ZM198.4,40.1l5.5-5.3v-3.1h-12.9l-2.1,2.1v4.3l2.1,2h7.3Z" fill="#1d1d1b"/>
    <path d="M216.7,39v-18l5.6-5.6h11.4l4.3,3.8V2.7h5.5v42h-5.2v-5.1l-5.1,5.1h-10.9l-5.6-5.6ZM232.4,39.9l5.7-5.8v-9.5l-5.1-4.5h-8.1l-2.7,2.7v14.3l2.7,2.7h7.5Z" fill="#1d1d1b"/>
  </g>
<g transform="translate(261.6,2.95) scale(0.2036)">
  <!-- animal -->
  <g fill="#1d1d1b">
    <g id="limbsLLk">
      <polygon points="34,70 -6,71.5 -28,74.5 -8,82 -28,90 -6,92.5 34,94" transform="rotate(30 36 82)"/>
      <polygon points="54,157 14,159 -2,162 12,168.5 -2,175 14,177 54,179" transform="rotate(-42 54 168)"/>
    </g>
    <use xlink:href="#limbsLLk" transform="translate(220,0) scale(-1,1)"/>
    <path d="M101,214 L110,258 L119,214 Z"/>
    <polygon points="88,48 92,10 103,-6 117,-6 128,10 132,48"/>
  </g>
  <!-- /animal -->
  <g transform="translate(18.2,28) scale(10)">
    <path d="M17.56,1.28l-4.76,4.35h1.64s.01,0,.02,0c.13.01.23.11.24.24,0,0,0,.01,0,.02v5.3s.02.04.03.05c0,0,0,0,0,0l.27.13s0,0,0,0c.09.04.15.14.15.24,0,.03,0,.06-.02.09,0,0,0,0,0,0,0,0,0,0,0,0l-.8,2.2s0,0,0,0c-.04.1-.14.17-.25.17-.03,0-.06,0-.09-.01,0,0,0,0,0,0,0,0,0,0,0,0l-1.79-.65s0,0,0,0c0,0,0,0,0,0l-1.25-.45s0,0,0,0c-.1-.04-.17-.14-.17-.25,0,0,0,0,0,0s0,0,0,0v-.93s-.01-.05-.04-.05l-.67-.25s0,0,0,0c0,0-.01,0-.02,0h-2.81s-.02,0-.03,0c0,0,0,0,0,0l-.36.2s0,0,0,0c-.04.02-.08.03-.13.03h-.59l-2.82,2.58c1.27,2.22,3.13,4.31,5.84,5.89C19,14.43,17.64,1.94,17.56,1.28Z" fill="#1d1d1b"/>
    <path d="M12.79,5.63h-.15s-.04-.02-.05-.03c0,0,0,0,0,0l-.05-.1s0,0,0,0c-.05-.09-.14-.14-.23-.14h-1.16s-.02,0-.03,0c0,0,0,0,0,0l-.22-.12s0,0,0,0c0,0,0,0,0,0-.04-.02-.08-.03-.13-.03h-.88s-.04-.01-.05-.03c0,0,0,0,0,0l-.2-.33s0,0,0,0c-.05-.08-.13-.13-.23-.13h-1.58c-.1,0-.2.06-.24.16,0,0,0,0,0,0l-.06.13s0,0,0,0c0,.02-.03.03-.05.03h-1.1c-.13,0-.24.09-.26.22,0,0,0,0,0,0l-.2,1.1s0,0,0,0c0,.03-.03.05-.06.05h-.91c-.11,0-.21.07-.25.17,0,0,0,0,0,0l-.07.19s0,0,0,0c0,.02-.03.04-.05.04h-1.17s-.01,0-.02,0c-.13.01-.23.11-.24.24,0,0,0,.01,0,.02v4.38s0,.01,0,.02c.01.13.11.23.24.24,0,0,.01,0,.02,0h2.73l6.65-6.08Z" fill="#1d1d1b"/>
    <path d="M17.58,1.33c-4.02,3.46-8.39.23-8.39.23,0,0-4.37,3.23-8.39-.23,0,0-1.71,13.02,8.39,18.92C19.29,14.36,17.58,1.33,17.58,1.33Z" fill="none" stroke="#1d1d1b" stroke-width="1.1" stroke-miterlimit="10"/>
  </g>
</g>
</svg>