<?xml version="1.0" encoding="UTF-8"?>
<svg xmlns="http://www.w3.org/2000/svg" xmlns:xlink="http://www.w3.org/1999/xlink" viewBox="-25 -12 270 280" width="270" height="280">
  <defs>
    <clipPath id="shieldClip">
      <path d="M17.58,1.33c-4.02,3.46-8.39.23-8.39.23,0,0-4.37,3.23-8.39-.23,0,0-1.71,13.02,8.39,18.92C19.29,14.36,17.58,1.33,17.58,1.33Z"/>
    </clipPath>
  </defs>
  <!-- animal -->
  <g fill="#1d1d1b">
    <g id="limbsL">
      <polygon points="34,70 -6,71.5 -28,74.5 -8,82 -28,90 -6,92.5 34,94" transform="rotate(30 36 82)"/>
      <polygon points="54,157 14,159 -2,162 12,168.5 -2,175 14,177 54,179" transform="rotate(-42 54 168)"/>
    </g>
    <use xlink:href="#limbsL" transform="translate(220,0) scale(-1,1)"/>
    <path d="M101,214 L110,258 L119,214 Z"/>
    <polygon points="88,48 92,10 103,-6 117,-6 128,10 132,48"/>
  </g>
  <!-- /animal -->
  <!-- shell: per bend sinister from the top-right corner, counterchanged keyboard (original shield.svg art) -->
  <g transform="translate(18.2,28) scale(10)">
    <rect x="-1" y="-1" width="20.5" height="23" fill="#1d1d1b" clip-path="url(#shieldClip)"/>
    <path d="M17.56,1.28l-4.76,4.35h1.64s.01,0,.02,0c.13.01.23.11.24.24,0,0,0,.01,0,.02v5.3s.02.04.03.05c0,0,0,0,0,0l.27.13s0,0,0,0c.09.04.15.14.15.24,0,.03,0,.06-.02.09,0,0,0,0,0,0,0,0,0,0,0,0l-.8,2.2s0,0,0,0c-.04.1-.14.17-.25.17-.03,0-.06,0-.09-.01,0,0,0,0,0,0,0,0,0,0,0,0l-1.79-.65s0,0,0,0c0,0,0,0,0,0l-1.25-.45s0,0,0,0c-.1-.04-.17-.14-.17-.25,0,0,0,0,0,0s0,0,0,0v-.93s-.01-.05-.04-.05l-.67-.25s0,0,0,0c0,0-.01,0-.02,0h-2.81s-.02,0-.03,0c0,0,0,0,0,0l-.36.2s0,0,0,0c-.04.02-.08.03-.13.03h-.59l-2.82,2.58c1.27,2.22,3.13,4.31,5.84,5.89C19,14.43,17.64,1.94,17.56,1.28Z" fill="#e9b32a"/>
    <path d="M12.79,5.63h-.15s-.04-.02-.05-.03c0,0,0,0,0,0l-.05-.1s0,0,0,0c-.05-.09-.14-.14-.23-.14h-1.16s-.02,0-.03,0c0,0,0,0,0,0l-.22-.12s0,0,0,0c0,0,0,0,0,0-.04-.02-.08-.03-.13-.03h-.88s-.04-.01-.05-.03c0,0,0,0,0,0l-.2-.33s0,0,0,0c-.05-.08-.13-.13-.23-.13h-1.58c-.1,0-.2.06-.24.16,0,0,0,0,0,0l-.06.13s0,0,0,0c0,.02-.03.03-.05.03h-1.1c-.13,0-.24.09-.26.22,0,0,0,0,0,0l-.2,1.1s0,0,0,0c0,.03-.03.05-.06.05h-.91c-.11,0-.21.07-.25.17,0,0,0,0,0,0l-.07.19s0,0,0,0c0,.02-.03.04-.05.04h-1.17s-.01,0-.02,0c-.13.01-.23.11-.24.24,0,0,0,.01,0,.02v4.38s0,.01,0,.02c.01.13.11.23.24.24,0,0,.01,0,.02,0h2.73l6.65-6.08Z" fill="#e9b32a"/>
    <path d="M17.58,1.33c-4.02,3.46-8.39.23-8.39.23,0,0-4.37,3.23-8.39-.23,0,0-1.71,13.02,8.39,18.92C19.29,14.36,17.58,1.33,17.58,1.33Z" fill="none" stroke="#1d1d1b" stroke-width="0.8" stroke-miterlimit="10"/>
  </g>
</svg>