<?xml version="1.0" encoding="UTF-8"?>
<svg id="Lager_1" xmlns="http://www.w3.org/2000/svg" version="1.1" viewBox="0 0 302.2 57.1">
  <!-- Generator: Adobe Illustrator 30.6.0, SVG Export Plug-In . SVG Version: 2.1.4 Build 109)  -->
  <g>
    <path d="M0,38.9v-4.5h5.6v2.6l2.5,2.6h13.5l2.6-2.6v-8.5l-2.6-2.5H5.8L.1,20.3v-11.1L5.8,3.5h17.7l5.7,5.7v4.5h-5.5v-2.7l-2.6-2.6h-12.9l-2.6,2.6v7.5l2.6,2.6h15.8l5.7,5.7v12l-5.8,5.8H5.7l-5.7-5.7Z" fill="#1d1d1b"/>
    <path d="M37.1,2.7h5.5v24.3h6.3l8.2-11.6h6.1l-9.8,14.1,10.4,15.2h-6.1l-8.9-12.8h-6.2v12.8h-5.5V2.7Z" fill="#1d1d1b"/>
    <path d="M66.6,39v-18l5.6-5.6h15.6l5.6,5.6v18l-5.6,5.6h-15.6l-5.6-5.6ZM70.8,9.7v-2.8l1.8-1.8h3.1l1.8,1.8v2.8l-1.8,1.8h-3.1l-1.8-1.8ZM85.4,39.9l2.6-2.6v-14.6l-2.6-2.6h-10.6l-2.6,2.6v14.6l2.6,2.6h10.6ZM82.8,9.7v-2.8l1.8-1.8h3.1l1.8,1.8v2.8l-1.8,1.8h-3.1l-1.8-1.8Z" fill="#1d1d1b"/>
    <path d="M101.4,2.7h5.5v42h-5.5V2.7Z" fill="#1d1d1b"/>
    <path d="M114.8,39v-18l5.6-5.6h11.4l4.3,3.8V2.7h5.5v42h-5.2v-5.1l-5.1,5.1h-10.9l-5.6-5.6ZM130.5,39.9l5.7-5.8v-9.5l-5.1-4.5h-8.1l-2.7,2.7v14.3l2.7,2.7h7.5Z" fill="#1d1d1b"/>
    <path d="M149.9,15.4h5.2v4.9l4.9-4.9h11.2l5.6,5.6v18l-5.6,5.6h-11.3l-4.5-3.9v16.3h-5.5V15.4ZM168.7,39.9l2.6-2.6v-14.5l-2.6-2.6h-7.5l-5.8,5.8v9.1l5.3,4.8h7.9Z" fill="#1d1d1b"/>
    <path d="M183.5,39.6v-7.2l5-5h15.4v-4.9l-2.6-2.5h-9.6l-2.5,2.5v2.2h-5.5v-3.6l5.7-5.7h14.2l5.7,5.7v23.6h-5.1v-4.8l-5.1,4.8h-10.6l-5-5ZM198.4,40.1l5.5-5.3v-3.1h-12.9l-2.1,2.1v4.3l2.1,2h7.3Z" fill="#1d1d1b"/>
    <path d="M216.7,39v-18l5.6-5.6h11.4l4.3,3.8V2.7h5.5v42h-5.2v-5.1l-5.1,5.1h-10.9l-5.6-5.6ZM232.4,39.9l5.7-5.8v-9.5l-5.1-4.5h-8.1l-2.7,2.7v14.3l2.7,2.7h7.5Z" fill="#1d1d1b"/>
  </g>
  <path d="M300.5,2.9c-8.9,7.6-18.6.5-18.6.5,0,0-9.7,7.1-18.6-.5,0,0-3.8,28.8,18.6,41.8,22.3-13,18.6-41.8,18.6-41.8Z" fill="none" stroke="#1d1d1b" stroke-miterlimit="10" stroke-width="3"/>
  <path d="M300.4,2.8l-10.5,9.6h3.6s0,0,0,0c.3,0,.5.2.5.5,0,0,0,0,0,0v11.7c0,0,0,0,0,.1,0,0,0,0,0,0l.6.3s0,0,0,0c.2,0,.3.3.3.5s0,.1,0,.2c0,0,0,0,0,0,0,0,0,0,0,0l-1.8,4.9s0,0,0,0c0,.2-.3.4-.5.4s-.1,0-.2,0c0,0,0,0,0,0,0,0,0,0,0,0l-4-1.4s0,0,0,0c0,0,0,0,0,0l-2.8-1s0,0,0,0c-.2,0-.4-.3-.4-.5s0,0,0,0,0,0,0,0v-2.1c0,0,0-.1,0-.1l-1.5-.6s0,0,0,0c0,0,0,0,0,0h-6.2s0,0,0,0c0,0,0,0,0,0l-.8.4s0,0,0,0c0,0-.2,0-.3,0h-1.3l-6.2,5.7c2.8,4.9,6.9,9.5,12.9,13,21.8-12.7,18.7-40.3,18.6-41.8Z" fill="#1d1d1b"/>
  <path d="M289.9,12.5h-.3c0,0,0,0-.1,0,0,0,0,0,0,0v-.2c-.1,0-.1,0-.1,0-.1-.2-.3-.3-.5-.3h-2.6s0,0,0,0c0,0,0,0,0,0l-.5-.3s0,0,0,0c0,0,0,0,0,0,0,0-.2,0-.3,0h-1.9s0,0-.1,0c0,0,0,0,0,0l-.4-.7s0,0,0,0c-.1-.2-.3-.3-.5-.3h-3.5c-.2,0-.4.1-.5.3,0,0,0,0,0,0v.3q-.1,0-.1,0s0,0-.1,0h-2.4c-.3,0-.5.2-.6.5,0,0,0,0,0,0l-.5,2.4s0,0,0,0c0,0,0,.1-.1.1h-2c-.2,0-.5.2-.5.4,0,0,0,0,0,0l-.2.4s0,0,0,0c0,0,0,0-.1,0h-2.6s0,0,0,0c-.3,0-.5.2-.5.5,0,0,0,0,0,0v9.7s0,0,0,0c0,.3.2.5.5.5,0,0,0,0,0,0h6l14.7-13.4Z" fill="#010101"/>
</svg>