<?xml version="1.0" encoding="UTF-8"?>
<svg id="Lager_1" data-name="Lager 1" xmlns="http://www.w3.org/2000/svg" width="119.21mm" height="25.88mm" viewBox="0 0 337.92 73.36">
  <g>
    <path d="M0,47.24v-4.5h5.6v2.6l2.5,2.6h13.5l2.6-2.6v-8.5l-2.6-2.5H5.8L.1,28.64v-11.1l5.7-5.7h17.7l5.7,5.7v4.5h-5.5v-2.7l-2.6-2.6h-12.9l-2.6,2.6v7.5l2.6,2.6h15.8l5.7,5.7v12l-5.8,5.8H5.7s-5.7-5.7-5.7-5.7Z" style="fill: #1d1d1b;"/>
    <path d="M37.1,11.04h5.5v24.3h6.3l8.2-11.6h6.1l-9.8,14.1,10.4,15.2h-6.1l-8.9-12.8h-6.2v12.8h-5.5s0-42,0-42Z" style="fill: #1d1d1b;"/>
    <path d="M66.6,47.34v-18l5.6-5.6h15.6l5.6,5.6v18l-5.6,5.6h-15.6l-5.6-5.6ZM70.8,18.04v-2.8l1.8-1.8h3.1l1.8,1.8v2.8l-1.8,1.8h-3.1l-1.8-1.8ZM85.4,48.24l2.6-2.6v-14.6l-2.6-2.6h-10.6l-2.6,2.6v14.6l2.6,2.6h10.6ZM82.8,18.04v-2.8l1.8-1.8h3.1l1.8,1.8v2.8l-1.8,1.8h-3.1l-1.8-1.8Z" style="fill: #1d1d1b;"/>
    <path d="M101.4,11.04h5.5v42h-5.5V11.04Z" style="fill: #1d1d1b;"/>
    <path d="M114.8,47.34v-18l5.6-5.6h11.4l4.3,3.8V11.04h5.5v42h-5.2v-5.1l-5.1,5.1h-10.9l-5.6-5.6v-.1ZM130.5,48.24l5.7-5.8v-9.5l-5.1-4.5h-8.1l-2.7,2.7v14.3l2.7,2.7h7.5v.1Z" style="fill: #1d1d1b;"/>
    <path d="M149.9,23.74h5.2v4.9l4.9-4.9h11.2l5.6,5.6v18l-5.6,5.6h-11.3l-4.5-3.9v16.3h-5.5V23.74h0ZM168.7,48.24l2.6-2.6v-14.5l-2.6-2.6h-7.5l-5.8,5.8v9.1l5.3,4.8h8Z" style="fill: #1d1d1b;"/>
    <path d="M183.5,47.94v-7.2l5-5h15.4v-4.9l-2.6-2.5h-9.6l-2.5,2.5v2.2h-5.5v-3.6l5.7-5.7h14.2l5.7,5.7v23.6h-5.1v-4.8l-5.1,4.8h-10.6l-5-5v-.1ZM198.4,48.44l5.5-5.3v-3.1h-12.9l-2.1,2.1v4.3l2.1,2h7.4Z" style="fill: #1d1d1b;"/>
    <path d="M216.7,47.34v-18l5.6-5.6h11.4l4.3,3.8V11.04h5.5v42h-5.2v-5.1l-5.1,5.1h-10.9l-5.6-5.6v-.1ZM232.4,48.24l5.7-5.8v-9.5l-5.1-4.5h-8.1l-2.7,2.7v14.3l2.7,2.7h7.5v.1Z" style="fill: #1d1d1b;"/>
  </g>
  <g>
    <path d="M322.2,15.03l-11.34,10.36h3.9s.03,0,.05,0c.31.02.55.27.57.57,0,.02,0,.03,0,.05v12.63c0,.06.04.11.08.12,0,0,0,0,0,0l.65.31s0,0,0,0c.22.1.36.33.36.57,0,.07-.01.15-.04.21,0,0,0,0,0,0,0,0,0,0,0,0l-1.9,5.23s0,0,0,0c-.09.25-.33.41-.59.41-.07,0-.14-.01-.21-.04,0,0,0,0,0,0,0,0,0,0,0,0l-4.25-1.55s0,0,0,0c0,0,0,0,0,0l-2.97-1.08s0,0,0,0c-.25-.09-.41-.33-.41-.59,0,0,0,0,0,0s0,0,0,0v-2.22c0-.06-.03-.11-.09-.13l-1.6-.6s0,0,0,0c-.02,0-.03,0-.05,0h-6.69s-.05,0-.07.02c0,0,0,0,0,0l-.86.48s0,0,0,0c-.09.05-.2.08-.3.08h-1.41l-6.71,6.13c3.03,5.27,7.45,10.25,13.9,14.02,23.42-13.67,20.18-43.42,19.99-44.98Z" style="fill: #1d1d1b;"/>
    <path d="M310.86,25.39h-.35c-.06,0-.1-.04-.12-.07,0,0,0,0,0,0l-.13-.24s0,0,0,0c-.11-.21-.32-.33-.56-.33h-2.77s-.05,0-.07-.02c0,0,0,0,0,0l-.52-.29s0,0,0,0c0,0,0,0,0,0-.09-.05-.2-.08-.31-.08h-2.1s-.09-.03-.12-.07c0,0,0,0,0,0l-.47-.78s0,0,0,0c-.11-.19-.32-.3-.54-.3h-3.75c-.25,0-.47.15-.57.37,0,0,0,0,0,0l-.14.31s0,0,0,0c-.02.05-.07.08-.13.08h-2.62c-.3,0-.56.22-.62.51,0,0,0,0,0,0l-.49,2.63s0,0,0,0c-.01.06-.07.11-.13.11h-2.17c-.26,0-.5.17-.59.42,0,0,0,0,0,0l-.16.45s0,0,0,0c-.02.05-.07.09-.13.09h-2.8s-.03,0-.05,0c-.31.02-.55.27-.57.57,0,.02,0,.03,0,.05v10.42s0,.03,0,.05c.02.31.27.55.57.57.02,0,.03,0,.05,0h6.5l15.84-14.47Z"/>
    <path d="M278.16,14.58c-.03.33-.21,1.26-1.45.61l-2.97-1.57c-.06-.03-.13-.06-.19-.09l-5.42-2.21,3.64,4.43-5.72-.82,4.71,3.48s.09.06.14.09l6.39,4.02c.58.37.95.97,1.01,1.65.45,5.34,1.64,11.95,4.42,18.54.35.82.18,1.78-.45,2.41l-4.93,4.9c-.07.07-.14.14-.2.22l-2.56,3.35,3.96-1.22-1.63,3.81,3.48-2.43s.09-.06.13-.1l3.58-2.91c.99-.81,2.48-.64,3.21.41,3,4.34,6.95,8.39,12.12,11.72.51.33.88.86.98,1.46l1.49,9.03,1.61-9.03c.11-.59.47-1.11.97-1.43,5.19-3.33,9.15-7.39,12.16-11.74.73-1.05,2.22-1.22,3.22-.41l3.57,2.91s.09.07.13.1l3.48,2.43-1.63-3.81,3.96,1.22-2.56-3.35c-.06-.08-.13-.15-.2-.22l-4.93-4.9c-.63-.63-.8-1.58-.45-2.41,2.78-6.58,3.97-13.2,4.43-18.54.06-.68.42-1.29,1.01-1.65l6.39-4.01s.09-.06.14-.09l4.71-3.48-5.72.82,3.64-4.43-5.42,2.21c-.07.03-.13.06-.19.09l-2.97,1.57c-1.24.65-1.42-.26-1.45-.6l-.15-1.83-.43-3.25-2.48,2.14c-4.64,3.99-9.46,4.18-13.18,3.35-.93-.21-1.63-.98-1.72-1.93-.17-.66-.65-8.93-1.22-9.23,0,0-2.64-3.83-2.64-3.83h-4.01l-2.64,3.83c-.56.26-1.05,8.6-1.22,9.23-.1.95-.79,1.72-1.72,1.93-3.72.84-8.54.64-13.18-3.35l-2.48-2.14-.43,3.25M303.14,58.35c-.69.46-1.62.46-2.31,0-15.34-10.25-17.92-28.09-18.13-37.52-.03-1.44,1.41-2.52,2.75-2,6.48,2.51,12.6.15,15.6-1.43.59-.31,1.27-.31,1.87,0,3,1.58,9.11,3.94,15.59,1.43,1.34-.52,2.79.56,2.75,2-.21,9.44-2.78,27.27-18.12,37.52Z" style="fill: #1d1d1b;"/>
  </g>
</svg>