<?xml version="1.0" encoding="UTF-8"?>
<svg id="Lager_1" data-name="Lager 1" xmlns="http://www.w3.org/2000/svg" width="112.89mm" height="21.67mm" viewBox="0 0 320.01 61.41">
  <g>
    <path d="M0,43.31v-4.5h5.6v2.6l2.5,2.6h13.5l2.6-2.6v-8.5l-2.6-2.5H5.8L.1,24.71v-11.1l5.7-5.7h17.7l5.7,5.7v4.5h-5.5v-2.7l-2.6-2.6h-12.9l-2.6,2.6v7.5l2.6,2.6h15.8l5.7,5.7v12l-5.8,5.8H5.7s-5.7-5.7-5.7-5.7Z" style="fill: #1d1d1b;"/>
    <path d="M37.1,7.11h5.5v24.3h6.3l8.2-11.6h6.1l-9.8,14.1,10.4,15.2h-6.1l-8.9-12.8h-6.2v12.8h-5.5s0-42,0-42Z" style="fill: #1d1d1b;"/>
    <path d="M66.6,43.41v-18l5.6-5.6h15.6l5.6,5.6v18l-5.6,5.6h-15.6l-5.6-5.6ZM70.8,14.11v-2.8l1.8-1.8h3.1l1.8,1.8v2.8l-1.8,1.8h-3.1l-1.8-1.8ZM85.4,44.31l2.6-2.6v-14.6l-2.6-2.6h-10.6l-2.6,2.6v14.6l2.6,2.6h10.6ZM82.8,14.11v-2.8l1.8-1.8h3.1l1.8,1.8v2.8l-1.8,1.8h-3.1l-1.8-1.8Z" style="fill: #1d1d1b;"/>
    <path d="M101.4,7.11h5.5v42h-5.5V7.11Z" style="fill: #1d1d1b;"/>
    <path d="M114.8,43.41v-18l5.6-5.6h11.4l4.3,3.8V7.11h5.5v42h-5.2v-5.1l-5.1,5.1h-10.9l-5.6-5.6v-.1ZM130.5,44.31l5.7-5.8v-9.5l-5.1-4.5h-8.1l-2.7,2.7v14.3l2.7,2.7h7.5v.1Z" style="fill: #1d1d1b;"/>
    <path d="M149.9,19.81h5.2v4.9l4.9-4.9h11.2l5.6,5.6v18l-5.6,5.6h-11.3l-4.5-3.9v16.3h-5.5V19.81h0ZM168.7,44.31l2.6-2.6v-14.5l-2.6-2.6h-7.5l-5.8,5.8v9.1l5.3,4.8h8Z" style="fill: #1d1d1b;"/>
    <path d="M183.5,44.01v-7.2l5-5h15.4v-4.9l-2.6-2.5h-9.6l-2.5,2.5v2.2h-5.5v-3.6l5.7-5.7h14.2l5.7,5.7v23.6h-5.1v-4.8l-5.1,4.8h-10.6l-5-5v-.1ZM198.4,44.51l5.5-5.3v-3.1h-12.9l-2.1,2.1v4.3l2.1,2h7.4Z" style="fill: #1d1d1b;"/>
    <path d="M216.7,43.41v-18l5.6-5.6h11.4l4.3,3.8V7.11h5.5v42h-5.2v-5.1l-5.1,5.1h-10.9l-5.6-5.6v-.1ZM232.4,44.31l5.7-5.8v-9.5l-5.1-4.5h-8.1l-2.7,2.7v14.3l2.7,2.7h7.5v.1Z" style="fill: #1d1d1b;"/>
  </g>
  <path d="M307.29,12.16l-9.17,8.38h3.16s.03,0,.04,0c.25.02.44.22.46.46,0,.01,0,.03,0,.04v10.22c0,.05.03.09.06.1,0,0,0,0,0,0l.53.25s0,0,0,0c.18.08.29.26.29.46,0,.06-.01.12-.03.17,0,0,0,0,0,0,0,0,0,0,0,0l-1.54,4.23s0,0,0,0c-.07.2-.27.34-.48.34-.05,0-.11,0-.17-.03,0,0,0,0,0,0,0,0,0,0,0,0l-3.44-1.25s0,0,0,0c0,0,0,0,0,0l-2.41-.88s0,0,0,0c-.2-.07-.33-.27-.33-.48,0,0,0,0,0,0s0,0,0,0v-1.8s-.03-.09-.07-.1l-1.3-.48s0,0,0,0c-.01,0-.03,0-.04,0h-5.41s-.04,0-.05.01c0,0,0,0,0,0l-.7.39s0,0,0,0c-.08.04-.16.06-.25.06h-1.14l-5.43,4.96c2.45,4.27,6.03,8.3,11.25,11.34,18.95-11.06,16.33-35.14,16.18-36.4Z" style="fill: #1d1d1b;"/>
  <path d="M298.12,20.54h-.28s-.08-.03-.1-.06c0,0,0,0,0,0l-.1-.2s0,0,0,0c-.09-.17-.26-.27-.45-.27h-2.24s-.04,0-.05-.01c0,0,0,0,0,0l-.42-.23s0,0,0,0c0,0,0,0,0,0-.08-.04-.16-.06-.25-.06h-1.7s-.07-.02-.1-.05c0,0,0,0,0,0l-.38-.63s0,0,0,0c-.09-.15-.26-.25-.44-.25h-3.03c-.2,0-.38.12-.46.3,0,0,0,0,0,0l-.11.25s0,0,0,0c-.02.04-.06.07-.1.07h-2.12c-.25,0-.46.18-.5.42,0,0,0,0,0,0l-.39,2.13s0,0,0,0c0,.05-.06.09-.11.09h-1.76c-.21,0-.41.14-.48.34,0,0,0,0,0,0l-.13.36s0,0,0,0c-.02.04-.06.07-.1.07h-2.26s-.03,0-.04,0c-.25.02-.44.22-.46.46,0,.01,0,.03,0,.04v8.43s0,.03,0,.04c.02.25.22.44.46.46.01,0,.03,0,.04,0h5.26l12.82-11.71Z"/>
  <path d="M271.65,11.8c-.02.27-.17,1.02-1.17.49l-2.4-1.27c-.05-.03-.1-.05-.16-.07l-4.38-1.79,2.95,3.58-4.63-.67,3.81,2.82s.07.05.11.08l5.17,3.25c.47.3.77.78.81,1.34.37,4.32,1.33,9.67,3.58,15,.28.67.15,1.44-.36,1.95l-3.99,3.97c-.06.06-.11.12-.16.18l-2.07,2.71,3.2-.99-1.32,3.08,2.82-1.96s.07-.05.11-.08l2.89-2.36c.8-.65,2.01-.52,2.6.33,2.43,3.52,5.62,6.79,9.81,9.48.42.27.71.69.79,1.18l1.21,7.3,1.31-7.3c.09-.48.38-.9.79-1.16,4.2-2.7,7.41-5.98,9.84-9.5.59-.85,1.8-.99,2.6-.33l2.89,2.35s.07.05.11.08l2.82,1.96-1.32-3.08,3.2.99-2.07-2.71c-.05-.06-.1-.12-.16-.18l-3.99-3.97c-.51-.51-.65-1.28-.36-1.95,2.25-5.33,3.22-10.68,3.58-15,.05-.55.34-1.04.81-1.34l5.17-3.25s.07-.05.11-.08l3.81-2.82-4.63.67,2.95-3.58-4.38,1.79c-.05.02-.11.05-.16.07l-2.4,1.27c-1,.53-1.15-.21-1.17-.49l-.13-1.48-.35-2.63-2.01,1.73c-3.75,3.23-7.66,3.39-10.67,2.71-.75-.17-1.32-.79-1.39-1.56-.14-.53-.53-7.23-.98-7.47,0,0-2.13-3.1-2.13-3.1h-3.25l-2.13,3.1c-.46.21-.85,6.96-.98,7.47-.08.77-.64,1.39-1.39,1.56-3.01.68-6.91.52-10.67-2.71l-2.01-1.73-.34,2.63M291.86,47.22c-.56.37-1.31.37-1.87,0-12.42-8.3-14.5-22.73-14.67-30.36-.03-1.16,1.14-2.04,2.23-1.61,5.24,2.03,10.19.12,12.62-1.16.48-.25,1.03-.25,1.51,0,2.43,1.28,7.37,3.19,12.62,1.16,1.09-.42,2.25.45,2.23,1.62-.17,7.64-2.25,22.07-14.67,30.36Z" style="fill: #1d1d1b;"/>
</svg>