<?xml version="1.0" encoding="UTF-8"?>
<svg id="Cu" xmlns="http://www.w3.org/2000/svg" width="7.5mm" height="7.66mm" viewBox="0 0 21.26 21.7">
  <path d="M16.61,4.44l-3.35,3.06h1.15s0,0,.01,0c.09,0,.16.08.17.17,0,0,0,0,0,.01v3.73s.01.03.02.04c0,0,0,0,0,0l.19.09s0,0,0,0c.06.03.11.1.11.17,0,.02,0,.04-.01.06,0,0,0,0,0,0,0,0,0,0,0,0l-.56,1.55s0,0,0,0c-.03.07-.1.12-.17.12-.02,0-.04,0-.06-.01,0,0,0,0,0,0,0,0,0,0,0,0l-1.26-.46s0,0,0,0c0,0,0,0,0,0l-.88-.32s0,0,0,0c-.07-.03-.12-.1-.12-.17,0,0,0,0,0,0s0,0,0,0v-.66s-.01-.03-.03-.04l-.47-.18s0,0,0,0c0,0,0,0-.01,0h-1.98s-.01,0-.02,0c0,0,0,0,0,0l-.25.14s0,0,0,0c-.03.02-.06.02-.09.02h-.42l-1.98,1.81c.9,1.56,2.2,3.03,4.11,4.15,6.93-4.04,5.97-12.84,5.91-13.3Z" style="fill: #1d1d1b;"/>
  <path d="M13.26,7.51h-.1s-.03-.01-.04-.02c0,0,0,0,0,0l-.04-.07s0,0,0,0c-.03-.06-.1-.1-.16-.1h-.82s-.01,0-.02,0c0,0,0,0,0,0l-.15-.08s0,0,0,0c0,0,0,0,0,0-.03-.02-.06-.02-.09-.02h-.62s-.03,0-.03-.02c0,0,0,0,0,0l-.14-.23s0,0,0,0c-.03-.06-.09-.09-.16-.09h-1.11c-.07,0-.14.04-.17.11,0,0,0,0,0,0l-.04.09s0,0,0,0c0,.01-.02.02-.04.02h-.78c-.09,0-.17.06-.18.15,0,0,0,0,0,0l-.14.78s0,0,0,0c0,.02-.02.03-.04.03h-.64c-.08,0-.15.05-.17.12,0,0,0,0,0,0l-.05.13s0,0,0,0c0,.02-.02.03-.04.03h-.83s0,0-.01,0c-.09,0-.16.08-.17.17,0,0,0,0,0,.01v3.08s0,0,0,.01c0,.09.08.16.17.17,0,0,0,0,.01,0h1.92l4.68-4.28Z" style="fill: #010101;"/>
  <path d="M3.58,4.31c0,.1-.06.37-.43.18l-.88-.46s-.04-.02-.06-.03l-1.6-.65,1.08,1.31-1.69-.24,1.39,1.03s.03.02.04.03l1.89,1.19c.17.11.28.29.3.49.13,1.58.49,3.54,1.31,5.48.1.24.05.53-.13.71l-1.46,1.45s-.04.04-.06.07l-.76.99,1.17-.36-.48,1.13,1.03-.72s.03-.02.04-.03l1.06-.86c.29-.24.73-.19.95.12.89,1.28,2.06,2.48,3.58,3.47.15.1.26.25.29.43l.44,2.67.48-2.67c.03-.18.14-.33.29-.42,1.54-.99,2.71-2.19,3.6-3.47.22-.31.66-.36.95-.12l1.06.86s.03.02.04.03l1.03.72-.48-1.13,1.17.36-.76-.99s-.04-.05-.06-.07l-1.46-1.45c-.19-.19-.24-.47-.13-.71.82-1.95,1.18-3.91,1.31-5.48.02-.2.13-.38.3-.49l1.89-1.19s.03-.02.04-.03l1.39-1.03-1.69.24,1.08-1.31-1.6.65s-.04.02-.06.03l-.88.46c-.37.19-.42-.08-.43-.18l-.05-.54-.13-.96-.73.63c-1.37,1.18-2.8,1.24-3.9.99-.28-.06-.48-.29-.51-.57-.05-.19-.19-2.64-.36-2.73,0,0-.78-1.13-.78-1.13h-1.19l-.78,1.13c-.17.08-.31,2.54-.36,2.73-.03.28-.23.51-.51.57-1.1.25-2.53.19-3.9-.99l-.73-.63-.13.96M10.97,17.26c-.2.14-.48.14-.68,0-4.54-3.03-5.3-8.31-5.36-11.1,0-.43.42-.74.81-.59,1.92.74,3.73.04,4.61-.42.18-.09.38-.09.55,0,.89.47,2.7,1.17,4.61.42.4-.15.82.16.81.59-.06,2.79-.82,8.07-5.36,11.1Z" style="fill: #1d1d1b;"/>
  <path d="M16.61,4.44l-3.35,3.06h1.15s0,0,.01,0c.09,0,.16.08.17.17,0,0,0,0,0,.01v3.73s.01.03.02.04c0,0,0,0,0,0l.19.09s0,0,0,0c.06.03.11.1.11.17,0,.02,0,.04-.01.06,0,0,0,0,0,0,0,0,0,0,0,0l-.56,1.55s0,0,0,0c-.03.07-.1.12-.17.12-.02,0-.04,0-.06-.01,0,0,0,0,0,0,0,0,0,0,0,0l-1.26-.46s0,0,0,0c0,0,0,0,0,0l-.88-.32s0,0,0,0c-.07-.03-.12-.1-.12-.17,0,0,0,0,0,0s0,0,0,0v-.66s-.01-.03-.03-.04l-.47-.18s0,0,0,0c0,0,0,0-.01,0h-1.98s-.01,0-.02,0c0,0,0,0,0,0l-.25.14s0,0,0,0c-.03.02-.06.02-.09.02h-.42l-1.98,1.81c.9,1.56,2.2,3.03,4.11,4.15,6.93-4.04,5.97-12.84,5.91-13.3Z" style="fill: #1d1d1b;"/>
  <path d="M13.26,7.51h-.1s-.03-.01-.04-.02c0,0,0,0,0,0l-.04-.07s0,0,0,0c-.03-.06-.1-.1-.16-.1h-.82s-.01,0-.02,0c0,0,0,0,0,0l-.15-.08s0,0,0,0c0,0,0,0,0,0-.03-.02-.06-.02-.09-.02h-.62s-.03,0-.03-.02c0,0,0,0,0,0l-.14-.23s0,0,0,0c-.03-.06-.09-.09-.16-.09h-1.11c-.07,0-.14.04-.17.11,0,0,0,0,0,0l-.04.09s0,0,0,0c0,.01-.02.02-.04.02h-.78c-.09,0-.17.06-.18.15,0,0,0,0,0,0l-.14.78s0,0,0,0c0,.02-.02.03-.04.03h-.64c-.08,0-.15.05-.17.12,0,0,0,0,0,0l-.05.13s0,0,0,0c0,.02-.02.03-.04.03h-.83s0,0-.01,0c-.09,0-.16.08-.17.17,0,0,0,0,0,.01v3.08s0,0,0,.01c0,.09.08.16.17.17,0,0,0,0,.01,0h1.92l4.68-4.28Z" style="fill: #010101;"/>
  <path d="M3.58,4.31c0,.1-.06.37-.43.18l-.88-.46s-.04-.02-.06-.03l-1.6-.65,1.08,1.31-1.69-.24,1.39,1.03s.03.02.04.03l1.89,1.19c.17.11.28.29.3.49.13,1.58.49,3.54,1.31,5.48.1.24.05.53-.13.71l-1.46,1.45s-.04.04-.06.07l-.76.99,1.17-.36-.48,1.13,1.03-.72s.03-.02.04-.03l1.06-.86c.29-.24.73-.19.95.12.89,1.28,2.06,2.48,3.58,3.47.15.1.26.25.29.43l.44,2.67.48-2.67c.03-.18.14-.33.29-.42,1.54-.99,2.71-2.19,3.6-3.47.22-.31.66-.36.95-.12l1.06.86s.03.02.04.03l1.03.72-.48-1.13,1.17.36-.76-.99s-.04-.05-.06-.07l-1.46-1.45c-.19-.19-.24-.47-.13-.71.82-1.95,1.18-3.91,1.31-5.48.02-.2.13-.38.3-.49l1.89-1.19s.03-.02.04-.03l1.39-1.03-1.69.24,1.08-1.31-1.6.65s-.04.02-.06.03l-.88.46c-.37.19-.42-.08-.43-.18l-.05-.54-.13-.96-.73.63c-1.37,1.18-2.8,1.24-3.9.99-.28-.06-.48-.29-.51-.57-.05-.19-.19-2.64-.36-2.73,0,0-.78-1.13-.78-1.13h-1.19l-.78,1.13c-.17.08-.31,2.54-.36,2.73-.03.28-.23.51-.51.57-1.1.25-2.53.19-3.9-.99l-.73-.63-.13.96M10.97,17.26c-.2.14-.48.14-.68,0-4.54-3.03-5.3-8.31-5.36-11.1,0-.43.42-.74.81-.59,1.92.74,3.73.04,4.61-.42.18-.09.38-.09.55,0,.89.47,2.7,1.17,4.61.42.4-.15.82.16.81.59-.06,2.79-.82,8.07-5.36,11.1Z" style="fill: #1d1d1b;"/>
</svg>