<?xml version="1.0" encoding="UTF-8"?>
<svg xmlns="http://www.w3.org/2000/svg" version="1.1" viewBox="0 0 27.5 28.1">
  <!-- Generator: Adobe Illustrator 30.6.0, SVG Export Plug-In . SVG Version: 2.1.4 Build 109)  -->
  <g id="Mask" display="none">
    <path d="M21.5,5.8l-4.3,4h1.5s0,0,0,0c.1,0,.2.1.2.2,0,0,0,0,0,0v4.8s0,0,0,0c0,0,0,0,0,0h.3q0,.1,0,.1c0,0,.1.1.1.2s0,0,0,0c0,0,0,0,0,0,0,0,0,0,0,0l-.7,2s0,0,0,0c0,0-.1.2-.2.2s0,0,0,0c0,0,0,0,0,0,0,0,0,0,0,0l-1.6-.6s0,0,0,0c0,0,0,0,0,0l-1.1-.4s0,0,0,0c0,0-.2-.1-.2-.2s0,0,0,0,0,0,0,0v-.9s0,0,0,0l-.6-.2s0,0,0,0c0,0,0,0,0,0h-2.6s0,0,0,0c0,0,0,0,0,0l-.3.2s0,0,0,0c0,0,0,0-.1,0h-.5l-2.6,2.3c1.2,2,2.9,3.9,5.3,5.4,9-5.2,7.7-16.6,7.7-17.2Z" fill="#1d1d1b"/>
    <path d="M17.2,9.7h-.1s0,0,0,0c0,0,0,0,0,0h0c0,0,0,0,0,0,0,0-.1-.1-.2-.1h-1.1s0,0,0,0c0,0,0,0,0,0h-.2q0-.1,0-.1s0,0,0,0c0,0,0,0-.1,0h-.8s0,0,0,0c0,0,0,0,0,0l-.2-.3s0,0,0,0c0,0-.1-.1-.2-.1h-1.4c0,0-.2,0-.2.1,0,0,0,0,0,0h0q0,.1,0,.1s0,0,0,0h-1c-.1,0-.2,0-.2.2,0,0,0,0,0,0l-.2,1s0,0,0,0c0,0,0,0,0,0h-.8c-.1,0-.2,0-.2.2,0,0,0,0,0,0v.2q0,0,0,0s0,0,0,0h-1.1s0,0,0,0c-.1,0-.2.1-.2.2,0,0,0,0,0,0v4s0,0,0,0c0,.1.1.2.2.2,0,0,0,0,0,0h2.5l6.1-5.5Z" fill="#010101"/>
    <path d="M4.6,5.6c0,.1,0,.5-.6.2l-1.1-.6s0,0,0,0l-2.1-.8,1.4,1.7-2.2-.3,1.8,1.3s0,0,0,0l2.4,1.5c.2.1.4.4.4.6.2,2,.6,4.6,1.7,7.1.1.3,0,.7-.2.9l-1.9,1.9s0,0,0,0l-1,1.3,1.5-.5-.6,1.5,1.3-.9s0,0,0,0l1.4-1.1c.4-.3,1-.2,1.2.2,1.1,1.7,2.7,3.2,4.6,4.5.2.1.3.3.4.6l.6,3.5.6-3.5c0-.2.2-.4.4-.5,2-1.3,3.5-2.8,4.7-4.5.3-.4.9-.5,1.2-.2l1.4,1.1s0,0,0,0l1.3.9-.6-1.5,1.5.5-1-1.3s0,0,0,0l-1.9-1.9c-.2-.2-.3-.6-.2-.9,1.1-2.5,1.5-5.1,1.7-7.1,0-.3.2-.5.4-.6l2.4-1.5s0,0,0,0l1.8-1.3-2.2.3,1.4-1.7-2.1.8s0,0,0,0l-1.1.6c-.5.3-.5-.1-.6-.2v-.7c0,0-.2-1.2-.2-1.2l-1,.8c-1.8,1.5-3.6,1.6-5,1.3-.4,0-.6-.4-.7-.7,0-.3-.2-3.4-.5-3.5,0,0-1-1.5-1-1.5h-1.5l-1,1.5c-.2.1-.4,3.3-.5,3.5,0,.4-.3.7-.7.7-1.4.3-3.3.2-5-1.3l-1-.8-.2,1.2M14.2,22.4c-.3.2-.6.2-.9,0-5.9-3.9-6.9-10.8-6.9-14.4,0-.6.5-1,1.1-.8,2.5,1,4.8,0,6-.5.2-.1.5-.1.7,0,1.1.6,3.5,1.5,6,.5.5-.2,1.1.2,1.1.8,0,3.6-1.1,10.4-6.9,14.4Z" fill="#1d1d1b"/>
  </g>
  <g id="Cu">
    <path d="M21.5,5.8l-4.3,4h1.5s0,0,0,0c.1,0,.2.1.2.2,0,0,0,0,0,0v4.8s0,0,0,0c0,0,0,0,0,0h.3q0,.1,0,.1c0,0,.1.1.1.2s0,0,0,0c0,0,0,0,0,0,0,0,0,0,0,0l-.7,2s0,0,0,0c0,0-.1.2-.2.2s0,0,0,0c0,0,0,0,0,0,0,0,0,0,0,0l-1.6-.6s0,0,0,0c0,0,0,0,0,0l-1.1-.4s0,0,0,0c0,0-.2-.1-.2-.2s0,0,0,0,0,0,0,0v-.9s0,0,0,0l-.6-.2s0,0,0,0c0,0,0,0,0,0h-2.6s0,0,0,0c0,0,0,0,0,0l-.3.2s0,0,0,0c0,0,0,0-.1,0h-.5l-2.6,2.3c1.2,2,2.9,3.9,5.3,5.4,9-5.2,7.7-16.6,7.7-17.2Z" fill="#1d1d1b"/>
    <path d="M17.2,9.7h-.1s0,0,0,0c0,0,0,0,0,0h0c0,0,0,0,0,0,0,0-.1-.1-.2-.1h-1.1s0,0,0,0c0,0,0,0,0,0h-.2q0-.1,0-.1s0,0,0,0c0,0,0,0-.1,0h-.8s0,0,0,0c0,0,0,0,0,0l-.2-.3s0,0,0,0c0,0-.1-.1-.2-.1h-1.4c0,0-.2,0-.2.1,0,0,0,0,0,0h0q0,.1,0,.1s0,0,0,0h-1c-.1,0-.2,0-.2.2,0,0,0,0,0,0l-.2,1s0,0,0,0c0,0,0,0,0,0h-.8c-.1,0-.2,0-.2.2,0,0,0,0,0,0v.2q0,0,0,0s0,0,0,0h-1.1s0,0,0,0c-.1,0-.2.1-.2.2,0,0,0,0,0,0v4s0,0,0,0c0,.1.1.2.2.2,0,0,0,0,0,0h2.5l6.1-5.5Z" fill="#010101"/>
    <path d="M4.6,5.6c0,.1,0,.5-.6.2l-1.1-.6s0,0,0,0l-2.1-.8,1.4,1.7-2.2-.3,1.8,1.3s0,0,0,0l2.4,1.5c.2.1.4.4.4.6.2,2,.6,4.6,1.7,7.1.1.3,0,.7-.2.9l-1.9,1.9s0,0,0,0l-1,1.3,1.5-.5-.6,1.5,1.3-.9s0,0,0,0l1.4-1.1c.4-.3,1-.2,1.2.2,1.1,1.7,2.7,3.2,4.6,4.5.2.1.3.3.4.6l.6,3.5.6-3.5c0-.2.2-.4.4-.5,2-1.3,3.5-2.8,4.7-4.5.3-.4.9-.5,1.2-.2l1.4,1.1s0,0,0,0l1.3.9-.6-1.5,1.5.5-1-1.3s0,0,0,0l-1.9-1.9c-.2-.2-.3-.6-.2-.9,1.1-2.5,1.5-5.1,1.7-7.1,0-.3.2-.5.4-.6l2.4-1.5s0,0,0,0l1.8-1.3-2.2.3,1.4-1.7-2.1.8s0,0,0,0l-1.1.6c-.5.3-.5-.1-.6-.2v-.7c0,0-.2-1.2-.2-1.2l-1,.8c-1.8,1.5-3.6,1.6-5,1.3-.4,0-.6-.4-.7-.7,0-.3-.2-3.4-.5-3.5,0,0-1-1.5-1-1.5h-1.5l-1,1.5c-.2.1-.4,3.3-.5,3.5,0,.4-.3.7-.7.7-1.4.3-3.3.2-5-1.3l-1-.8-.2,1.2M14.2,22.4c-.3.2-.6.2-.9,0-5.9-3.9-6.9-10.8-6.9-14.4,0-.6.5-1,1.1-.8,2.5,1,4.8,0,6-.5.2-.1.5-.1.7,0,1.1.6,3.5,1.5,6,.5.5-.2,1.1.2,1.1.8,0,3.6-1.1,10.4-6.9,14.4Z" fill="#1d1d1b"/>
  </g>
</svg>