<?xml version="1.0" encoding="UTF-8"?>
<svg xmlns="http://www.w3.org/2000/svg" width="9.71mm" height="9.91mm" viewBox="0 0 27.53 28.1">
  <g id="Mask">
    <path d="M21.51,5.76l-4.34,3.97h1.49s.01,0,.02,0c.12,0,.21.1.22.22,0,0,0,.01,0,.02v4.84s.02.04.03.05c0,0,0,0,0,0l.25.12s0,0,0,0c.08.04.14.13.14.22,0,.03,0,.06-.01.08,0,0,0,0,0,0,0,0,0,0,0,0l-.73,2s0,0,0,0c-.03.09-.13.16-.23.16-.03,0-.05,0-.08-.01,0,0,0,0,0,0,0,0,0,0,0,0l-1.63-.59s0,0,0,0c0,0,0,0,0,0l-1.14-.41s0,0,0,0c-.09-.03-.16-.13-.16-.23,0,0,0,0,0,0s0,0,0,0v-.85s-.01-.04-.03-.05l-.61-.23s0,0,0,0c0,0-.01,0-.02,0h-2.56s-.02,0-.03,0c0,0,0,0,0,0l-.33.18s0,0,0,0c-.04.02-.08.03-.12.03h-.54l-2.57,2.35c1.16,2.02,2.85,3.93,5.32,5.37,8.97-5.24,7.73-16.63,7.66-17.23Z" style="fill: #1d1d1b;"/>
    <path d="M17.17,9.72h-.13s-.04-.01-.05-.03c0,0,0,0,0,0l-.05-.09s0,0,0,0c-.04-.08-.12-.13-.21-.13h-1.06s-.02,0-.03,0c0,0,0,0,0,0l-.2-.11s0,0,0,0c0,0,0,0,0,0-.04-.02-.08-.03-.12-.03h-.8s-.04,0-.05-.03c0,0,0,0,0,0l-.18-.3s0,0,0,0c-.04-.07-.12-.12-.21-.12h-1.44c-.09,0-.18.06-.22.14,0,0,0,0,0,0l-.05.12s0,0,0,0c0,.02-.03.03-.05.03h-1c-.12,0-.22.08-.24.2,0,0,0,0,0,0l-.19,1.01s0,0,0,0c0,.02-.03.04-.05.04h-.83c-.1,0-.19.06-.23.16,0,0,0,0,0,0l-.06.17s0,0,0,0c0,.02-.03.03-.05.03h-1.07s-.01,0-.02,0c-.12,0-.21.1-.22.22,0,0,0,.01,0,.02v3.99s0,.01,0,.02c0,.12.1.21.22.22,0,0,.01,0,.02,0h2.49l6.07-5.54Z" style="fill: #010101;"/>
    <path d="M4.64,5.59c-.01.13-.08.48-.56.23l-1.14-.6s-.05-.02-.07-.03l-2.07-.85,1.4,1.7-2.19-.32,1.8,1.33s.03.02.05.04l2.45,1.54c.22.14.36.37.39.63.17,2.04.63,4.58,1.69,7.1.13.32.07.68-.17.92l-1.89,1.88s-.05.06-.07.09l-.98,1.28,1.52-.47-.62,1.46,1.33-.93s.03-.02.05-.04l1.37-1.11c.38-.31.95-.24,1.23.16,1.15,1.66,2.66,3.21,4.64,4.49.2.13.34.33.37.56l.57,3.46.62-3.46c.04-.23.18-.42.37-.55,1.99-1.28,3.51-2.83,4.66-4.5.28-.4.85-.47,1.23-.16l1.37,1.11s.03.03.05.04l1.33.93-.62-1.46,1.52.47-.98-1.28s-.05-.06-.07-.09l-1.89-1.88c-.24-.24-.31-.61-.17-.92,1.07-2.52,1.52-5.06,1.7-7.1.02-.26.16-.49.39-.63l2.45-1.54s.04-.02.05-.04l1.8-1.33-2.19.32,1.4-1.7-2.07.85s-.05.02-.07.03l-1.14.6c-.47.25-.54-.1-.56-.23l-.06-.7-.16-1.24-.95.82c-1.78,1.53-3.62,1.6-5.05,1.28-.36-.08-.62-.37-.66-.74-.07-.25-.25-3.42-.47-3.53,0,0-1.01-1.47-1.01-1.47h-1.54l-1.01,1.47c-.22.1-.4,3.29-.47,3.53-.04.36-.3.66-.66.74-1.42.32-3.27.25-5.05-1.28l-.95-.82-.16,1.24M14.21,22.35c-.26.18-.62.18-.88,0-5.88-3.93-6.86-10.76-6.94-14.37-.01-.55.54-.96,1.05-.76,2.48.96,4.82.06,5.97-.55.23-.12.49-.12.71,0,1.15.61,3.49,1.51,5.97.55.51-.2,1.07.21,1.05.77-.08,3.61-1.07,10.44-6.94,14.37Z" style="fill: #1d1d1b;"/>
  </g>
  <g id="Cu">
    <path d="M21.51,5.76l-4.34,3.97h1.49s.01,0,.02,0c.12,0,.21.1.22.22,0,0,0,.01,0,.02v4.84s.02.04.03.05c0,0,0,0,0,0l.25.12s0,0,0,0c.08.04.14.13.14.22,0,.03,0,.06-.01.08,0,0,0,0,0,0,0,0,0,0,0,0l-.73,2s0,0,0,0c-.03.09-.13.16-.23.16-.03,0-.05,0-.08-.01,0,0,0,0,0,0,0,0,0,0,0,0l-1.63-.59s0,0,0,0c0,0,0,0,0,0l-1.14-.41s0,0,0,0c-.09-.03-.16-.13-.16-.23,0,0,0,0,0,0s0,0,0,0v-.85s-.01-.04-.03-.05l-.61-.23s0,0,0,0c0,0-.01,0-.02,0h-2.56s-.02,0-.03,0c0,0,0,0,0,0l-.33.18s0,0,0,0c-.04.02-.08.03-.12.03h-.54l-2.57,2.35c1.16,2.02,2.85,3.93,5.32,5.37,8.97-5.24,7.73-16.63,7.66-17.23Z" style="fill: #1d1d1b;"/>
    <path d="M17.17,9.72h-.13s-.04-.01-.05-.03c0,0,0,0,0,0l-.05-.09s0,0,0,0c-.04-.08-.12-.13-.21-.13h-1.06s-.02,0-.03,0c0,0,0,0,0,0l-.2-.11s0,0,0,0c0,0,0,0,0,0-.04-.02-.08-.03-.12-.03h-.8s-.04,0-.05-.03c0,0,0,0,0,0l-.18-.3s0,0,0,0c-.04-.07-.12-.12-.21-.12h-1.44c-.09,0-.18.06-.22.14,0,0,0,0,0,0l-.05.12s0,0,0,0c0,.02-.03.03-.05.03h-1c-.12,0-.22.08-.24.2,0,0,0,0,0,0l-.19,1.01s0,0,0,0c0,.02-.03.04-.05.04h-.83c-.1,0-.19.06-.23.16,0,0,0,0,0,0l-.06.17s0,0,0,0c0,.02-.03.03-.05.03h-1.07s-.01,0-.02,0c-.12,0-.21.1-.22.22,0,0,0,.01,0,.02v3.99s0,.01,0,.02c0,.12.1.21.22.22,0,0,.01,0,.02,0h2.49l6.07-5.54Z" style="fill: #010101;"/>
    <path d="M4.64,5.59c-.01.13-.08.48-.56.23l-1.14-.6s-.05-.02-.07-.03l-2.07-.85,1.4,1.7-2.19-.32,1.8,1.33s.03.02.05.04l2.45,1.54c.22.14.36.37.39.63.17,2.04.63,4.58,1.69,7.1.13.32.07.68-.17.92l-1.89,1.88s-.05.06-.07.09l-.98,1.28,1.52-.47-.62,1.46,1.33-.93s.03-.02.05-.04l1.37-1.11c.38-.31.95-.24,1.23.16,1.15,1.66,2.66,3.21,4.64,4.49.2.13.34.33.37.56l.57,3.46.62-3.46c.04-.23.18-.42.37-.55,1.99-1.28,3.51-2.83,4.66-4.5.28-.4.85-.47,1.23-.16l1.37,1.11s.03.03.05.04l1.33.93-.62-1.46,1.52.47-.98-1.28s-.05-.06-.07-.09l-1.89-1.88c-.24-.24-.31-.61-.17-.92,1.07-2.52,1.52-5.06,1.7-7.1.02-.26.16-.49.39-.63l2.45-1.54s.04-.02.05-.04l1.8-1.33-2.19.32,1.4-1.7-2.07.85s-.05.02-.07.03l-1.14.6c-.47.25-.54-.1-.56-.23l-.06-.7-.16-1.24-.95.82c-1.78,1.53-3.62,1.6-5.05,1.28-.36-.08-.62-.37-.66-.74-.07-.25-.25-3.42-.47-3.53,0,0-1.01-1.47-1.01-1.47h-1.54l-1.01,1.47c-.22.1-.4,3.29-.47,3.53-.04.36-.3.66-.66.74-1.42.32-3.27.25-5.05-1.28l-.95-.82-.16,1.24M14.21,22.35c-.26.18-.62.18-.88,0-5.88-3.93-6.86-10.76-6.94-14.37-.01-.55.54-.96,1.05-.76,2.48.96,4.82.06,5.97-.55.23-.12.49-.12.71,0,1.15.61,3.49,1.51,5.97.55.51-.2,1.07.21,1.05.77-.08,3.61-1.07,10.44-6.94,14.37Z" style="fill: #1d1d1b;"/>
  </g>
</svg>