<?xml version="1.0" encoding="UTF-8"?>
<svg xmlns="http://www.w3.org/2000/svg" width="6.5mm" height="5.21mm" viewBox="0 0 18.43 14.77">
  <g id="Mask">
    <path d="M2.19,2.05c.11,0,.57.27.58-.13S1.72.55,1.69.14C1.68,0,1.68-.02,1.82.01l2.86,1.32c.09.13-.05.28-.03.39.04.24,2.25,1.62,2.56,1.97l-.44.27c.46.72.84-.62,1.31-.73.32-.08,2.19-.06,2.51.02.58.15.54.67.84.85.21.13.54.17.58-.14l-.44-.23c-.01-.08-.03-.18,0-.24.07-.12,2.09-1.22,2.38-1.44.08-.22-.49-.43-.27-.58l3.11-1.02c.18.18-1.02,1.31-.89,1.69.68.03,1.36-.02,2.04-.05.12,0,.15-.08.26.09l-2,1.64-.04.27,2.17.62c.1-.01.07.19.06.22-.06.14-2.65.83-3.02.84v-.45s-.45,0-.45,0v.44s-2.09,0-2.09,0l-.13.15c-.05.17.58,1.61.74,1.73,1,.31,2.05.08,3.07.22l1.3,1.9c.14.24-.09.42-.12.6-.15.89-.26,1.74-.82,2.47-.13.17-.64.53-.7.59-.06.07.02.31-.1.39-.09.06-.26,0-.34.06s-.06.35-.26.42-.4-.1-.56-.04c-.13.05-.24.33-.42.39-.27.08-.46-.08-.68-.06-1.07.07-.86.14-1.96-.01s-3.18-.05-4.44-.08c-.45-.01-.98.27-1.43-.1l-.19.35c-.31,0-.67.05-.97.01-.18-.02-1.28-.23-1.4-.27s-.1-.21-.21-.25c-.19-.06-.46.05-.66-.06-.17-.09-.13-.32-.2-.38s-.27-.04-.37-.12c-.14-.1-.1-.27-.16-.33s-.23-.02-.29-.11c-.11-.16-.64-1.27-.71-1.51-.21-.69.04-1.34-.39-1.9l1.5-2.15c.73-.08,2.29.24,2.91-.02.23-.1,1.15-1.71,1.09-1.8l-2.58-.18.18-.4c-.77-.51-.65.24-.71.31-.13.13-2.38-.64-2.75-.67-.13-.09-.13-.17,0-.26.26-.18,2.15-.43,2.22-.71-.53-.64-1.28-1.1-1.89-1.66-.09-.08-.19-.08-.15-.25.63.02,1.28-.03,1.91,0ZM5.84,3.06c-.4-.3-1.45-.85-1.71-1.18-.17-.22-.08-.46-.21-.59-.05-.05-1.13-.54-1.28-.59-.1-.03-.23-.09-.23.06,0,.08.76,1.22.82,1.26.15.12.43.1.65.2.46.21,1.07.85,1.55,1.12,0,.13-.57.27-.36.45.57.3,1.92,1.55,2.45,1.64.13.02.25.05.22-.13-.12-.29-1.67-1.1-1.82-1.38-.05-.09-.05-.17-.04-.27l.44-.22c-.18-.09-.34-.26-.48-.37ZM16.1.98c-.11-.09-1.68.47-1.67.66l.12.31c-.19.32-1.91,1.07-2.24,1.44-.05.06-.06.14-.11.2.2.19.52.11.44.48-.21.02-1.84,1.02-1.6,1.25.16.03.26-.04.39-.1.32-.16,1.82-1.1,2.06-1.32.07-.06.16-.12.13-.22l-.53-.36,1.53-1.05.6-.02.89-1.29ZM4.36,3.73v-.39c-.41-.2-1.13-.31-1.49-.56-.16-.11-.23-.31-.35-.36-.19-.07-1.45-.21-1.45.03l1.11.93c.11-.09.19-.26.35-.26.06,0,.98.36,1.03.4.19.15-.2.3.26.53.21.1,1.3.44,1.42.31l-.06-.27-.83-.35ZM17.43,2.4h-1.56c-.28,0-.18.38-.31.49-.25.22-1.2.3-1.47.57s-.14.8-.75.94c-.05.21.3.15.4.14.42-.04.78-.29,1.19-.37.18-.28-.53-.37-.17-.66.05-.04.86-.31.94-.31.29-.01.36.29.51.26l1.21-1.06ZM11.03,4.18c.04-.44-.36-.66-.75-.71-.36-.04-1.71-.05-2.03.02-.28.06-.41.28-.42.56,0,.19,0,.12.13.13.44-.09,2.89.25,3.07,0ZM9.08,4.45c-.34-.06-1.45-.24-1.69-.04-.48.4.91.45.55,1.18-.22.45-1.18-.17-1.53.25l.13.22h2.53v-1.6ZM5.16,4.62c-.76-.2-1.57-.03-2.35-.09-.18-.02-.3-.17-.53-.17-.15,0-1.47.3-1.3.53.35.03.78.3,1.11.28.29-.02.41-.31.72-.34.17-.01,1.07.03,1.23.06.1.02.16.05.22.13l-.13.22c-.09.06.05.15.1.16.44.12,2.04.18,2.48.1.1-.02.16-.05.22-.13,0-.22-1.57-.11-1.87-.26l.09-.49ZM9.48,4.36l-.13.13v1.42c.36.38.75.12,1.11.13.42,0,.98.12,1.42.09.18-.01.55-.18.28-.36-.43-.28-1.35.29-1.48-.57.03-.36.68-.5.72-.63l-.13-.22h-1.78ZM13.52,5.25h-1.82l-.13.27h2.76l-.18-.44c.09.03.19-.09.22-.09h1.33l.27.45,1.64-.45c.03-.19-.12-.25-.27-.31-.21-.09-1.19-.35-1.38-.32-.04.3-.16.33-.47.34s-.68-.08-1.05-.07-.73.16-1.11.09l.18.53ZM12.28,5.07c.07.07.75-.19.71-.4-.06-.31-.86.26-.71.4ZM5.47,7.91h3.6c.11-.26.15-1.57-.01-1.68-.6-.04-1.21,0-1.81,0-.35,0-.63-.2-1-.03-.27.13-.69,1.21-.9,1.5l.12.21ZM9.7,7.55h3.11c.02-.16-.2-.08-.31-.09-.39-.02-.78.02-1.16,0-.24,0-.45-.09-.7-.1s-.8-.07-.94.18ZM4.63,8.09l-2.43-.07-1.21,1.63c.01.21,1.24.13,1.47.13.4,0,.75.18,1.19-.04.21-.1,1.09-1.51.98-1.64ZM5.22,8.1c-.19.07-1.27,2.47-1.21,2.68l.14.13,9.95.11c.12,0,.26-.02.3-.15.03-.12-.74-2.06-.87-2.32-.07-.15-.17-.4-.35-.45h-7.97ZM13.92,8.09l-.13.21,1.19,1.65h2.31c.14-.11.13-.11.09-.27-.05-.19-.66-1.15-.81-1.33-.09-.11-.42-.27-.53-.27h-2.13ZM3.12,10.04c-.47.08-1.03-.07-1.47-.07-.08,0-.55.02-.49.2.26.3.64.06.93.05s.62.03.89,0c.12-.02.28-.07.13-.18ZM15.48,10.49h1.73l.13-.22-.13-.13h-1.73v.36ZM3.03,10.49h-1.82l-.13.13.13.13h1.69l.13-.27ZM17.26,10.66h-1.78c-.04.26.06.15.22.18s1.32.1,1.41.07c.12-.04.17-.13.15-.25ZM1.16,11.2h1.87c.08-.23-.27-.24-.41-.26s-1.85-.08-1.46.26ZM17.17,11.11c-.51.11-1.22-.22-1.67-.02-.3.13,0,.28.21.28s.45-.08.71-.09.73.3.75-.17ZM1.25,11.73h1.87v-.27c-.6-.08-1.23-.18-1.81,0l-.05.27ZM17.08,11.55h-1.47s-.11-.1-.17-.09l-.14.13.13.22h1.51l.13-.27ZM14.14,11.73l-9.07-.04c-.06.21.19.13.31.13,1.91.08,3.82-.03,5.71.14.93-.18,2.01.06,2.92-.05.13-.02.28-.07.13-.18ZM1.43,12.17h1.78c.02-.18.02-.15-.11-.2-.27-.12-2.05-.13-1.67.2ZM8.45,12.09l-1.78-.09c.03.16.17.17.31.18.28.03.79.06,1.07.07.08,0,.41-.03.4-.16ZM16.81,12h-1.6v.27h1.6v-.27ZM8.85,12.35c-.67-.08-1.6,0-2.31,0-.05,0-.16-.16-.22.09.96.1,1.88.01,2.84.09.03-.09-.27-.17-.31-.18ZM3.3,12.44h-1.29s-.11-.1-.17-.09l-.14.13.13.22h1.33l.13-.27ZM15.03,12.71c.32.16.57.04.86.03.14,0,.72.18.65-.16-.05-.23-1.78-.23-1.51.13ZM12.9,12.8l-8.09-.05c0,.26,1.61.08,1.81.08,1.71.02,3.4.13,5.08.13l1.2-.16ZM3.34,12.89c-.34-.09-.99.06-1.38,0-.02.18-.02.15.11.2.35.15,1.01,0,1.4-.02.03-.02-.1-.17-.13-.18ZM16.19,12.98c-.43-.03-.86-.06-1.29,0-.12.02-.28.06-.13.18.44-.11,1.21.25,1.42-.18ZM9.3,13.06c-1.36-.16-3.01.12-4.4,0,.05.18.13.14.26.14.95-.01,1.94.04,2.89.04.52,0,1.04,0,1.56,0,.03-.09-.27-.17-.31-.18ZM3.74,13.33h-1.33c-.03.39.46.19.66.19.19,0,.7.22.68-.19ZM10.5,13.42c-.39.06-.83-.07-1.19-.06-.07,0-.26.03-.23.15l.66.09.76-.18ZM15.74,13.42c-.44-.11-.81-.11-1.24,0v.26c.36-.08,1.19.22,1.24-.27ZM4.19,13.95c-.22-.34-.81-.11-1.16-.18-.04.23.04.16.19.2.35.1.62.09.96-.03ZM15.21,13.86c-.33.03-.71-.04-1.02,0-.12.02-.26.05-.13.18.33.13.6.09.94,0,.15-.04.26.09.22-.18Z"/>
    <path d="M8.32,9.86c-.19-.14-.18-.42-.09-.62.06-.13.87-.62.98-.62.04,0,.71.36.76.42.18.2.27.82.04.82h-1.69ZM9.05,8.9c-.25.05-.87.5-.51.75.1.07.95.06,1.12.04.79-.09-.17-.88-.61-.79Z"/>
  </g>
  <g id="Cu">
    <path d="M2.19,2.05c.11,0,.57.27.58-.13S1.72.55,1.69.14C1.68,0,1.68-.02,1.82.01l2.86,1.32c.09.13-.05.28-.03.39.04.24,2.25,1.62,2.56,1.97l-.44.27c.46.72.84-.62,1.31-.73.32-.08,2.19-.06,2.51.02.58.15.54.67.84.85.21.13.54.17.58-.14l-.44-.23c-.01-.08-.03-.18,0-.24.07-.12,2.09-1.22,2.38-1.44.08-.22-.49-.43-.27-.58l3.11-1.02c.18.18-1.02,1.31-.89,1.69.68.03,1.36-.02,2.04-.05.12,0,.15-.08.26.09l-2,1.64-.04.27,2.17.62c.1-.01.07.19.06.22-.06.14-2.65.83-3.02.84v-.45s-.45,0-.45,0v.44s-2.09,0-2.09,0l-.13.15c-.05.17.58,1.61.74,1.73,1,.31,2.05.08,3.07.22l1.3,1.9c.14.24-.09.42-.12.6-.15.89-.26,1.74-.82,2.47-.13.17-.64.53-.7.59-.06.07.02.31-.1.39-.09.06-.26,0-.34.06s-.06.35-.26.42-.4-.1-.56-.04c-.13.05-.24.33-.42.39-.27.08-.46-.08-.68-.06-1.07.07-.86.14-1.96-.01s-3.18-.05-4.44-.08c-.45-.01-.98.27-1.43-.1l-.19.35c-.31,0-.67.05-.97.01-.18-.02-1.28-.23-1.4-.27s-.1-.21-.21-.25c-.19-.06-.46.05-.66-.06-.17-.09-.13-.32-.2-.38s-.27-.04-.37-.12c-.14-.1-.1-.27-.16-.33s-.23-.02-.29-.11c-.11-.16-.64-1.27-.71-1.51-.21-.69.04-1.34-.39-1.9l1.5-2.15c.73-.08,2.29.24,2.91-.02.23-.1,1.15-1.71,1.09-1.8l-2.58-.18.18-.4c-.77-.51-.65.24-.71.31-.13.13-2.38-.64-2.75-.67-.13-.09-.13-.17,0-.26.26-.18,2.15-.43,2.22-.71-.53-.64-1.28-1.1-1.89-1.66-.09-.08-.19-.08-.15-.25.63.02,1.28-.03,1.91,0ZM5.84,3.06c-.4-.3-1.45-.85-1.71-1.18-.17-.22-.08-.46-.21-.59-.05-.05-1.13-.54-1.28-.59-.1-.03-.23-.09-.23.06,0,.08.76,1.22.82,1.26.15.12.43.1.65.2.46.21,1.07.85,1.55,1.12,0,.13-.57.27-.36.45.57.3,1.92,1.55,2.45,1.64.13.02.25.05.22-.13-.12-.29-1.67-1.1-1.82-1.38-.05-.09-.05-.17-.04-.27l.44-.22c-.18-.09-.34-.26-.48-.37ZM16.1.98c-.11-.09-1.68.47-1.67.66l.12.31c-.19.32-1.91,1.07-2.24,1.44-.05.06-.06.14-.11.2.2.19.52.11.44.48-.21.02-1.84,1.02-1.6,1.25.16.03.26-.04.39-.1.32-.16,1.82-1.1,2.06-1.32.07-.06.16-.12.13-.22l-.53-.36,1.53-1.05.6-.02.89-1.29ZM4.36,3.73v-.39c-.41-.2-1.13-.31-1.49-.56-.16-.11-.23-.31-.35-.36-.19-.07-1.45-.21-1.45.03l1.11.93c.11-.09.19-.26.35-.26.06,0,.98.36,1.03.4.19.15-.2.3.26.53.21.1,1.3.44,1.42.31l-.06-.27-.83-.35ZM17.43,2.4h-1.56c-.28,0-.18.38-.31.49-.25.22-1.2.3-1.47.57s-.14.8-.75.94c-.05.21.3.15.4.14.42-.04.78-.29,1.19-.37.18-.28-.53-.37-.17-.66.05-.04.86-.31.94-.31.29-.01.36.29.51.26l1.21-1.06ZM11.03,4.18c.04-.44-.36-.66-.75-.71-.36-.04-1.71-.05-2.03.02-.28.06-.41.28-.42.56,0,.19,0,.12.13.13.44-.09,2.89.25,3.07,0ZM9.08,4.45c-.34-.06-1.45-.24-1.69-.04-.48.4.91.45.55,1.18-.22.45-1.18-.17-1.53.25l.13.22h2.53v-1.6ZM5.16,4.62c-.76-.2-1.57-.03-2.35-.09-.18-.02-.3-.17-.53-.17-.15,0-1.47.3-1.3.53.35.03.78.3,1.11.28.29-.02.41-.31.72-.34.17-.01,1.07.03,1.23.06.1.02.16.05.22.13l-.13.22c-.09.06.05.15.1.16.44.12,2.04.18,2.48.1.1-.02.16-.05.22-.13,0-.22-1.57-.11-1.87-.26l.09-.49ZM9.48,4.36l-.13.13v1.42c.36.38.75.12,1.11.13.42,0,.98.12,1.42.09.18-.01.55-.18.28-.36-.43-.28-1.35.29-1.48-.57.03-.36.68-.5.72-.63l-.13-.22h-1.78ZM13.52,5.25h-1.82l-.13.27h2.76l-.18-.44c.09.03.19-.09.22-.09h1.33l.27.45,1.64-.45c.03-.19-.12-.25-.27-.31-.21-.09-1.19-.35-1.38-.32-.04.3-.16.33-.47.34s-.68-.08-1.05-.07-.73.16-1.11.09l.18.53ZM12.28,5.07c.07.07.75-.19.71-.4-.06-.31-.86.26-.71.4ZM5.47,7.91h3.6c.11-.26.15-1.57-.01-1.68-.6-.04-1.21,0-1.81,0-.35,0-.63-.2-1-.03-.27.13-.69,1.21-.9,1.5l.12.21ZM9.7,7.55h3.11c.02-.16-.2-.08-.31-.09-.39-.02-.78.02-1.16,0-.24,0-.45-.09-.7-.1s-.8-.07-.94.18ZM4.63,8.09l-2.43-.07-1.21,1.63c.01.21,1.24.13,1.47.13.4,0,.75.18,1.19-.04.21-.1,1.09-1.51.98-1.64ZM5.22,8.1c-.19.07-1.27,2.47-1.21,2.68l.14.13,9.95.11c.12,0,.26-.02.3-.15.03-.12-.74-2.06-.87-2.32-.07-.15-.17-.4-.35-.45h-7.97ZM13.92,8.09l-.13.21,1.19,1.65h2.31c.14-.11.13-.11.09-.27-.05-.19-.66-1.15-.81-1.33-.09-.11-.42-.27-.53-.27h-2.13ZM3.12,10.04c-.47.08-1.03-.07-1.47-.07-.08,0-.55.02-.49.2.26.3.64.06.93.05s.62.03.89,0c.12-.02.28-.07.13-.18ZM15.48,10.49h1.73l.13-.22-.13-.13h-1.73v.36ZM3.03,10.49h-1.82l-.13.13.13.13h1.69l.13-.27ZM17.26,10.66h-1.78c-.04.26.06.15.22.18s1.32.1,1.41.07c.12-.04.17-.13.15-.25ZM1.16,11.2h1.87c.08-.23-.27-.24-.41-.26s-1.85-.08-1.46.26ZM17.17,11.11c-.51.11-1.22-.22-1.67-.02-.3.13,0,.28.21.28s.45-.08.71-.09.73.3.75-.17ZM1.25,11.73h1.87v-.27c-.6-.08-1.23-.18-1.81,0l-.05.27ZM17.08,11.55h-1.47s-.11-.1-.17-.09l-.14.13.13.22h1.51l.13-.27ZM14.14,11.73l-9.07-.04c-.06.21.19.13.31.13,1.91.08,3.82-.03,5.71.14.93-.18,2.01.06,2.92-.05.13-.02.28-.07.13-.18ZM1.43,12.17h1.78c.02-.18.02-.15-.11-.2-.27-.12-2.05-.13-1.67.2ZM8.45,12.09l-1.78-.09c.03.16.17.17.31.18.28.03.79.06,1.07.07.08,0,.41-.03.4-.16ZM16.81,12h-1.6v.27h1.6v-.27ZM8.85,12.35c-.67-.08-1.6,0-2.31,0-.05,0-.16-.16-.22.09.96.1,1.88.01,2.84.09.03-.09-.27-.17-.31-.18ZM3.3,12.44h-1.29s-.11-.1-.17-.09l-.14.13.13.22h1.33l.13-.27ZM15.03,12.71c.32.16.57.04.86.03.14,0,.72.18.65-.16-.05-.23-1.78-.23-1.51.13ZM12.9,12.8l-8.09-.05c0,.26,1.61.08,1.81.08,1.71.02,3.4.13,5.08.13l1.2-.16ZM3.34,12.89c-.34-.09-.99.06-1.38,0-.02.18-.02.15.11.2.35.15,1.01,0,1.4-.02.03-.02-.1-.17-.13-.18ZM16.19,12.98c-.43-.03-.86-.06-1.29,0-.12.02-.28.06-.13.18.44-.11,1.21.25,1.42-.18ZM9.3,13.06c-1.36-.16-3.01.12-4.4,0,.05.18.13.14.26.14.95-.01,1.94.04,2.89.04.52,0,1.04,0,1.56,0,.03-.09-.27-.17-.31-.18ZM3.74,13.33h-1.33c-.03.39.46.19.66.19.19,0,.7.22.68-.19ZM10.5,13.42c-.39.06-.83-.07-1.19-.06-.07,0-.26.03-.23.15l.66.09.76-.18ZM15.74,13.42c-.44-.11-.81-.11-1.24,0v.26c.36-.08,1.19.22,1.24-.27ZM4.19,13.95c-.22-.34-.81-.11-1.16-.18-.04.23.04.16.19.2.35.1.62.09.96-.03ZM15.21,13.86c-.33.03-.71-.04-1.02,0-.12.02-.26.05-.13.18.33.13.6.09.94,0,.15-.04.26.09.22-.18Z"/>
    <path d="M8.32,9.86c-.19-.14-.18-.42-.09-.62.06-.13.87-.62.98-.62.04,0,.71.36.76.42.18.2.27.82.04.82h-1.69ZM9.05,8.9c-.25.05-.87.5-.51.75.1.07.95.06,1.12.04.79-.09-.17-.88-.61-.79Z"/>
  </g>
</svg>